<?xml version="1.0" encoding="utf-8"?>
<!-- Generator: Adobe Illustrator 23.0.1, SVG Export Plug-In . SVG Version: 6.00 Build 0)  -->
<svg version="1.1" id="Capa_1" xmlns="http://www.w3.org/2000/svg" xmlns:xlink="http://www.w3.org/1999/xlink" x="0px" y="0px"
	 viewBox="0 0 512 512" style="enable-background:new 0 0 512 512;" xml:space="preserve">
<style type="text/css">
	.st0{fill:#F57F17;}
</style>
<g>
	<g>
		<path class="st0" d="M110,366c-5.5,0-10,4.5-10,10s4.5,10,10,10s10-4.5,10-10S115.5,366,110,366z"/>
	</g>
</g>
<g>
	<g>
		<path class="st0" d="M512,196c0-4.9-2.8-6.8-6.4-10.6C455.1,133.4,355.5,46,256,46C157.1,46,57.1,133.4,6.3,185.5
			c-1.1,1.2-2.3,2.4-2.8,2.8C1.3,190.2,0,193,0,196c0,44.8,19.6,79.4,60,105.5v32.1l-18.9,37.9c-1.9,3.9-1.2,8.5,1.9,11.5
			c58.6,58.6,128.4,82.7,213,82.9c0.5,0,0.9,0,1.4,0c115.4,0,176.1-47.3,211.7-82.9c3-3,3.8-7.7,1.9-11.5L452,333.6v-32.1
			C492.4,275.4,512,240.8,512,196z M257.3,446c-0.4,0-0.9,0-1.3,0c-104.1-0.3-160.3-39.9-193.8-72l14-28h359.6l14,28
			C416,406.3,359.9,446,257.3,446z M80,326v-20h352v20H80z M439.1,286H72.9c-34.8-21.8-51.6-49.2-52.8-85.9
			C79.7,138.8,170.7,66,256,66c85.8,0,175.8,72.1,235.9,134.1C490.8,236.8,473.9,264.2,439.1,286z"/>
	</g>
</g>
<g>
	<g>
		<path class="st0" d="M256,86c-49.6,0-90,40.4-90,90s40.4,90,90,90s90-40.4,90-90S305.6,86,256,86z M256,246c-38.6,0-70-31.4-70-70
			s31.4-70,70-70s70,31.4,70,70S294.6,246,256,246z"/>
	</g>
</g>
<g>
	<g>
		<path class="st0" d="M296,166c-5.5,0-10,4.5-10,10c0,13-8.4,24.2-20,28.3v-41.5c5.5-3.6,9.2-9.8,9.2-16.8c0-11-9-20-20-20
			s-20,9-20,20c0,7.7,4.4,14.4,10.8,17.7v40.5c-11.6-4.1-20-15.2-20-28.3c0-5.5-4.5-10-10-10s-10,4.5-10,10c0,27.6,22.4,50,50,50
			c27.6,0,50-22.4,50-50C306,170.5,301.5,166,296,166z"/>
	</g>
</g>
<g>
	<g>
		<path class="st0" d="M257.4,406h-1.2c-41.3-0.1-80.4-7.2-107.2-19.4c-5-2.3-11-0.1-13.2,5c-2.3,5-0.1,11,5,13.2
			c29.3,13.3,71.4,21,115.5,21.2h1.2c5.5,0,10-4.5,10-10S262.9,406,257.4,406z"/>
	</g>
</g>
</svg>
