<?xml version="1.0" encoding="utf-8"?>
<!-- Generator: Adobe Illustrator 23.0.1, SVG Export Plug-In . SVG Version: 6.00 Build 0)  -->
<svg version="1.1" id="Layer_1" xmlns="http://www.w3.org/2000/svg" xmlns:xlink="http://www.w3.org/1999/xlink" x="0px" y="0px"
	 viewBox="0 0 496 496" style="enable-background:new 0 0 496 496;" xml:space="preserve">
<style type="text/css">
	.st0{opacity:0.8;fill:#F57F17;}
	.st1{fill:#F57F17;}
</style>
<path class="st0" d="M455.9,128l-60.8-27L368,40.1L301.8,47L248,8l-53.9,39L128,40.1l-27,60.8L40.1,128l6.9,66.2L8,248l39,53.9
	L40.1,368l60.8,27l27.1,60.8l66.2-6.9l53.8,39l53.9-39l66.1,6.9l27-60.8l60.8-27.1l-6.9-66.2l39-53.8l-39-53.9L455.9,128z M200,344
	l-67.9-67.9l22.6-22.6l45.3,45.2L335.8,163l22.6,22.6L200,344z"/>
<g>
	<path class="st1" d="M494.5,243.3l-37.2-51.4l6.6-63.1c0.4-3.4-1.5-6.7-4.7-8.1l-58-25.8l-25.8-58c-1.4-3.2-4.7-5.1-8.1-4.7
		l-63.1,6.6L252.7,1.5c-2.8-2-6.6-2-9.4,0l-51.4,37.2l-63.1-6.6c-3.4-0.3-6.7,1.6-8.1,4.7l-25.8,58l-58,25.8
		c-3.2,1.4-5.1,4.7-4.7,8.1l6.6,63.1L1.5,243.3c-2,2.8-2,6.6,0,9.4l37.2,51.4l-6.6,63.1c-0.4,3.4,1.5,6.7,4.7,8.1l58,25.8l25.8,58
		c1.4,3.1,4.7,5,8.1,4.7l63.1-6.6l51.4,37.2c2.8,2,6.6,2,9.4,0l51.4-37.2l63.1,6.6c3.4,0.3,6.7-1.5,8.1-4.7l25.8-58l58-25.8
		c3.2-1.4,5.1-4.7,4.7-8.1l-6.6-63.1l37.2-51.4C496.5,249.9,496.5,246.1,494.5,243.3z M442.5,297.2c-1.2,1.6-1.7,3.6-1.5,5.5
		l6.3,60.4l-55.5,24.7c-1.8,0.8-3.3,2.2-4.1,4.1l-24.7,55.5l-60.4-6.3c-2-0.2-3.9,0.3-5.5,1.5L248,478.1l-49.2-35.6
		c-1.4-1-3-1.5-4.7-1.5c-0.3,0-0.6,0-0.8,0l-60.4,6.3l-24.7-55.5c-0.8-1.8-2.2-3.3-4.1-4.1l-55.5-24.7l6.3-60.4
		c0.2-2-0.3-3.9-1.5-5.5L17.9,248l35.6-49.2c1.2-1.6,1.7-3.6,1.5-5.5l-6.3-60.4l55.5-24.7c1.8-0.8,3.3-2.2,4.1-4.1l24.7-55.5
		l60.4,6.3c2,0.2,3.9-0.3,5.5-1.5L248,17.9l49.2,35.6c1.6,1.2,3.6,1.7,5.5,1.5l60.4-6.3l24.7,55.5c0.8,1.8,2.3,3.3,4.1,4.1
		l55.5,24.7l-6.3,60.4c-0.2,2,0.3,3.9,1.5,5.5l35.6,49.2L442.5,297.2z"/>
	<path class="st1" d="M341.4,157.3c-3.1-3.1-8.2-3.1-11.3,0L200,287.4l-39.6-39.5c-3.1-3.1-8.2-3.1-11.3,0l-22.7,22.5
		c-1.5,1.5-2.4,3.5-2.4,5.7s0.8,4.2,2.4,5.7l67.9,67.9c3.1,3.1,8.2,3.1,11.3,0L364,191.2c3.1-3.1,3.1-8.2,0-11.3L341.4,157.3z
		 M200,332.7l-56.6-56.6l11.3-11.3l39.6,39.6c3.1,3.1,8.2,3.1,11.3,0l130.1-130.1l11.3,11.3L200,332.7z"/>
</g>
</svg>
