<?xml version="1.0" encoding="utf-8"?>
<!-- Generator: Adobe Illustrator 23.0.1, SVG Export Plug-In . SVG Version: 6.00 Build 0)  -->
<svg version="1.1" id="Layer_1" xmlns="http://www.w3.org/2000/svg" xmlns:xlink="http://www.w3.org/1999/xlink" x="0px" y="0px"
	 viewBox="0 0 91.2 17.1" style="enable-background:new 0 0 91.2 17.1;" xml:space="preserve">
<style type="text/css">
	.st0{fill:#FFFFFF;}
	.st1{fill:#F8971D;}
</style>
<title>Asset 5</title>
<g>
	<g>
		<path class="st0" d="M46.7,2.3c-1-0.1-2,0.6-2.1,1.7v9.1c0.3,1.2,1.5,1.9,2.7,1.6c0.8-0.2,1.4-0.8,1.6-1.6V4
			C48.7,3,47.7,2.3,46.7,2.3z M46.7,17.1c-2.8,0-5-1.8-5-4V4c0-2.2,2.2-4,5-4s5.1,1.8,5.1,4v9.1C51.8,15.3,49.5,17.1,46.7,17.1z"/>
		<path class="st0" d="M41.1,16.9L38,9.3c0.5-0.2,1-0.5,1.4-0.8c0.7-0.6,1.1-1.5,1.1-2.5V4.1c0-1.2-0.5-2.2-1.4-2.9
			C38,0.4,36.7,0,35.3,0h-4.8v16.9h3V2.3h1.8c0.4,0,0.9,0.1,1.3,0.2c0.7,0.2,1.1,0.8,1,1.5V6l0.1,0.1c0,0.3-0.2,0.5-0.4,0.7
			c-0.8,0.5-1.8,0.7-2.7,0.7v2.4c0.3,0,0.5-0.1,0.7-0.1l2.9,7.1H41.1z"/>
		<path class="st0" d="M91.2,16.9l-3.1-7.6c0.5-0.2,1-0.5,1.4-0.8c0.7-0.6,1.1-1.5,1.1-2.5V4.1c0-1.1-0.5-2.2-1.4-2.9
			C88.1,0.4,86.8,0,85.4,0h-4.8v16.9h3V2.3h1.9c0.4,0,0.9,0.1,1.3,0.2c0.7,0.2,1.1,0.8,1,1.5V6l0.1,0.1c0,0.3-0.2,0.5-0.4,0.7
			c-0.8,0.5-1.8,0.7-2.8,0.7v2.4c0.3,0,0.5-0.1,0.8-0.1l2.8,7.1H91.2z"/>
		<path class="st0" d="M28.1,1.2C27,0.4,25.7,0,24.4,0h-4.8v16.9h2.9V2.3h1.9c0.4,0,0.8,0.1,1.2,0.2c0.6,0.3,1,0.9,0.9,1.5v3
			c0,0.2-0.1,0.3-0.2,0.4c-0.8,0.4-1.8,0.6-2.7,0.5v2.3c1.7,0.1,3.4-0.3,4.8-1.3c0.6-0.5,1.1-1.2,1.1-2V4.1C29.5,3,29,1.9,28.1,1.2z
			"/>
		<polygon class="st0" points="63.6,0.1 63.6,0.1 59.7,9.3 56,0.1 56,0.1 53.1,0.1 53.1,16.9 56,16.9 56,6.5 59,13.9 60.4,13.9 
			63.6,6.4 63.6,16.9 66.6,16.9 66.6,0.1 		"/>
		<polygon class="st0" points="79.5,16.9 74.7,0.1 72.4,0.1 67.6,16.9 70.6,16.9 73.6,6.4 74.8,11.1 72.9,11.1 72.4,13.4 75.5,13.4 
			76.5,16.9 		"/>
		<path class="st1" d="M16,11H7l3.3-3.2h2.6V4.3L1,16.2v-4.8L11.4,1.1H16V11z M15.8,0.1H1.2C0.5,0.1,0,0.6,0,1.2v14.5
			c0,0.7,0.5,1.3,1.2,1.3h14.6c0.6,0,1.2-0.5,1.2-1.3V1.2C17,0.6,16.5,0.1,15.8,0.1z"/>
	</g>
</g>
</svg>
