<svg xmlns="http://www.w3.org/2000/svg" viewBox="0 0 96.22 17.07">
  <title>Asset 5</title>
  <g id="Layer_2" data-name="Layer 2">
    <g id="Logo">
      <g>
        <path d="M20.05,11H8.61L12.77,7.8H16V4.28L1.26,16.07V11.44l13-10.38h5.8ZM19.75.12H1.56C.67.12,0,.65,0,1.29V15.66c0,.7.67,1.23,1.56,1.23H19.75a1.36,1.36,0,0,0,1.48-1.23V1.29A1.36,1.36,0,0,0,19.75.12Z" fill="#f79226"/>
        <path d="M51.67,2.35A2,2,0,0,0,49.52,4v9.09a2.22,2.22,0,0,0,4.31,0V4A2,2,0,0,0,51.67,2.35Zm0,14.72c-2.82,0-5-1.76-5-4V4c0-2.17,2.22-4,5-4S56.8,1.82,56.8,4v9.09C56.8,15.31,54.5,17.07,51.67,17.07Z" fill="#fff"/>
        <path d="M46.11,16.89,43,9.27a5.23,5.23,0,0,0,1.41-.82A3.14,3.14,0,0,0,45.51,6V4.11A3.55,3.55,0,0,0,44.1,1.17,7,7,0,0,0,40.31,0H35.49V16.89h3V2.35h1.85a3.5,3.5,0,0,1,1.27.23,1.46,1.46,0,0,1,1,1.53V6l.08.12a1,1,0,0,1-.38.7,4.45,4.45,0,0,1-2.74.65V9.85c.29,0,.52-.06.74-.06l2.9,7.1Z" fill="#fff"/>
        <path d="M96.22,16.89,93.1,9.27a5.23,5.23,0,0,0,1.41-.82A3.12,3.12,0,0,0,95.63,6V4.11a3.58,3.58,0,0,0-1.41-2.94A7,7,0,0,0,90.43,0H85.6V16.89h3V2.35h1.86a3.49,3.49,0,0,1,1.26.23,1.45,1.45,0,0,1,1,1.53V6l.07.12a1,1,0,0,1-.37.7,4.49,4.49,0,0,1-2.75.65V9.85c.3,0,.52-.06.82-.06l2.82,7.1Z" fill="#fff"/>
        <path d="M33.11,1.17A6.61,6.61,0,0,0,29.4,0H24.65V16.89h2.89V2.35h1.93a3.17,3.17,0,0,1,1.19.23,1.51,1.51,0,0,1,.89,1.53v3a.57.57,0,0,1-.22.41A4.81,4.81,0,0,1,28.66,8v2.34a7.19,7.19,0,0,0,4.75-1.29,2.7,2.7,0,0,0,1.11-2V4.11A3.65,3.65,0,0,0,33.11,1.17Z" fill="#fff"/>
        <polygon points="68.6 0.06 68.6 0.06 64.74 9.27 60.95 0.12 60.95 0.06 58.06 0.06 58.06 16.89 60.95 16.89 60.95 6.51 64 13.9 65.41 13.9 68.6 6.39 68.6 16.89 71.57 16.89 71.57 0.06 68.6 0.06" fill="#fff"/>
        <polygon points="84.49 16.89 79.74 0.06 77.36 0.06 72.61 16.89 75.58 16.89 78.55 6.45 79.81 11.09 77.88 11.09 77.36 13.37 80.48 13.37 81.52 16.89 84.49 16.89" fill="#fff"/>
      </g>
    </g>
  </g>
</svg>
