<?xml version="1.0" encoding="utf-8"?>
<!-- Generator: Adobe Illustrator 23.0.1, SVG Export Plug-In . SVG Version: 6.00 Build 0)  -->
<svg version="1.1" id="Capa_1" xmlns="http://www.w3.org/2000/svg" xmlns:xlink="http://www.w3.org/1999/xlink" x="0px" y="0px"
	 viewBox="0 0 512 512" style="enable-background:new 0 0 512 512;" xml:space="preserve">
<style type="text/css">
	.st0{fill:#F57F17;}
</style>
<g>
	<path class="st0" d="M489.5,0h-99.7c-4.2,0-7.5,3.4-7.5,7.5s3.4,7.5,7.5,7.5h99.7c4.1,0,7.5,3.4,7.5,7.5v151.3
		c0,4.1-3.4,7.5-7.5,7.5H282.7v-3.6c0-14.7-11.9-26.6-26.6-26.6s-26.6,11.9-26.6,26.6v3.6H153c-4.1,0-7.5,3.4-7.5,7.5
		s3.4,7.5,7.5,7.5h76.5v132.4l-17.8-20c-11-12.3-26.8-19.4-43.4-19.4c-6.2,0-11.7,3.2-14.9,8.5s-3.3,11.7-0.3,17.1l29.9,55
		c7.4,13.6,16.9,26,28.1,36.7l31.9,30.3V453c-7.8,1.6-13.7,8.5-13.7,16.8v25c0,9.5,7.7,17.2,17.2,17.2H365c9.5,0,17.2-7.7,17.2-17.2
		v-25c0-8.1-5.6-14.9-13.2-16.7v-16.7c6.8-8.6,28.1-40.3,28.1-101.3v-45.9c0-14.7-11.9-26.6-26.6-26.6c-4.9,0-9.5,1.3-13.4,3.7
		c-3.9-9.8-13.5-16.8-24.7-16.8c-4.9,0-9.5,1.3-13.4,3.7c-3.9-9.8-13.5-16.8-24.7-16.8c-4.1,0-8.1,0.9-11.6,2.6v-42.8h206.8
		c12.4,0,22.5-10.1,22.5-22.5V22.5C512,10.1,501.9,0,489.5,0L489.5,0z M294.2,251.5c6.4,0,11.6,5.2,11.6,11.6v13.1
		c0,4.2,3.4,7.5,7.5,7.5s7.5-3.4,7.5-7.5c0-6.4,5.2-11.6,11.6-11.6c6.4,0,11.6,5.2,11.6,11.6v13.1c0,4.2,3.4,7.5,7.5,7.5
		s7.5-3.4,7.5-7.5c0-6.4,5.2-11.6,11.6-11.6s11.6,5.2,11.6,11.6v45.9c0,64.6-25.8,93.1-26,93.3c-1.3,1.4-2.1,3.2-2.1,5.2v19h-18.2
		c-4.2,0-7.5,3.4-7.5,7.5s3.4,7.5,7.5,7.5H365c1.2,0,2.2,1,2.2,2.2v25c0,1.2-1,2.2-2.2,2.2H246.5c-1.2,0-2.2-1-2.2-2.2v-25
		c0-1.2,1-2.2,2.2-2.2h59.2c4.2,0,7.5-3.4,7.5-7.5s-3.4-7.5-7.5-7.5h-47.7v-19c0-2.1-0.8-4-2.3-5.4l-34.2-32.6
		c-10.1-9.6-18.6-20.7-25.3-33l-29.9-55c-0.7-1.9,0-3.1,2-3.4c12.3,0,24,5.3,32.2,14.4l30.7,34.4c4.4,5.1,13.6,1.9,13.4-5V177.7
		c0-6.4,5.2-11.6,11.6-11.6c6.4,0,11.6,5.2,11.6,11.6v85.4c0,4.2,3.4,7.5,7.5,7.5s7.5-3.4,7.5-7.5
		C282.7,256.7,287.9,251.5,294.2,251.5L294.2,251.5z"/>
	<path class="st0" d="M122.9,181.3H22.5c-4.1,0-7.5-3.4-7.5-7.5V22.5c0-4.1,3.4-7.5,7.5-7.5h337.1c4.2,0,7.5-3.4,7.5-7.5
		S363.8,0,359.7,0H22.5C10.1,0,0,10.1,0,22.5v151.3c0,12.4,10.1,22.5,22.5,22.5h100.4c4.2,0,7.5-3.4,7.5-7.5
		S127.1,181.3,122.9,181.3L122.9,181.3z"/>
	<path class="st0" d="M305.5,92.5c4.4-4.3,6-10.6,4.1-16.5c-1.9-5.9-6.9-10.1-13-10.9L279,62.6c-0.3,0-0.6-0.3-0.8-0.6l-7.8-15.9
		c-2.7-5.5-8.3-9-14.4-9c-6.2,0-11.7,3.4-14.4,9L233.8,62c-0.2,0.3-0.4,0.5-0.8,0.6l-17.5,2.5c-6.1,0.9-11.1,5.1-13,10.9
		s-0.3,12.2,4.1,16.5l12.7,12.3c0.2,0.2,0.4,0.6,0.3,0.9l-3,17.4c-1,6.1,1.4,12.1,6.4,15.7c5,3.6,11.5,4.1,16.9,1.2l15.7-8.2
		c0.3-0.2,0.7-0.2,1,0l15.7,8.2c2.4,1.2,4.9,1.9,7.5,1.9c3.3,0,6.6-1,9.4-3.1c5-3.6,7.4-9.7,6.4-15.7l-3-17.4
		c-0.1-0.3,0.1-0.7,0.3-0.9L305.5,92.5z M282.3,94.1c-3.8,3.7-5.5,9-4.6,14.2l3,17.4c0,0.2,0.1,0.6-0.4,1c-0.5,0.4-1,0.2-1.1,0.1
		l-15.7-8.2c-2.3-1.2-4.9-1.8-7.5-1.8c-2.6,0-5.1,0.6-7.5,1.8l-15.7,8.2c-0.2,0.1-0.6,0.3-1.1-0.1c-0.5-0.4-0.4-0.9-0.4-1l3-17.4
		c0.9-5.2-0.8-10.5-4.6-14.2L217,81.8c-0.1-0.1-0.5-0.5-0.3-1.1c0.2-0.6,0.7-0.7,0.8-0.7l17.5-2.5c5.2-0.8,9.8-4.1,12.1-8.8
		l7.8-15.9c0.1-0.2,0.3-0.6,0.9-0.6s0.9,0.4,0.9,0.6l7.8,15.9c2.3,4.7,6.9,8,12.1,8.8l17.5,2.5c0.2,0,0.6,0.1,0.8,0.7
		c0.2,0.6-0.1,1-0.3,1.1L282.3,94.1z"/>
	<path class="st0" d="M145.6,123.2l-3-17.4c-0.1-0.3,0.1-0.7,0.3-0.9l12.7-12.3c4.4-4.3,6-10.6,4.1-16.5s-6.9-10.1-13-10.9
		l-17.5-2.5c-0.3,0-0.6-0.3-0.8-0.6l-7.8-15.9c-2.7-5.5-8.3-9-14.4-9s-11.7,3.4-14.4,9L83.9,62c-0.2,0.3-0.5,0.5-0.8,0.6l-17.5,2.5
		c-6.1,0.9-11.1,5.1-13,10.9s-0.3,12.2,4.1,16.5l12.7,12.3c0.2,0.2,0.4,0.6,0.3,0.9l-3,17.4c-1,6.1,1.4,12.1,6.4,15.7
		c5,3.6,11.5,4.1,16.9,1.2l15.7-8.2c0.3-0.2,0.7-0.2,1,0l15.7,8.2c2.4,1.2,4.9,1.9,7.5,1.9c3.3,0,6.6-1,9.4-3.1
		C144.2,135.3,146.7,129.3,145.6,123.2L145.6,123.2z M132.5,94.1c-3.8,3.7-5.5,9-4.6,14.2l3,17.4c0,0.2,0.1,0.6-0.4,1
		c-0.5,0.4-0.9,0.2-1.1,0.1l-15.7-8.2c-2.3-1.2-4.9-1.8-7.5-1.8s-5.1,0.6-7.5,1.8L83,126.9c-0.2,0.1-0.6,0.3-1.1-0.1
		c-0.5-0.4-0.4-0.9-0.4-1l3-17.4c0.9-5.2-0.8-10.5-4.6-14.2L67.2,81.8c-0.1-0.1-0.5-0.5-0.3-1.1c0.2-0.6,0.7-0.7,0.8-0.7l17.5-2.5
		c5.2-0.8,9.8-4.1,12.1-8.8l7.8-15.9c0.1-0.2,0.3-0.6,0.9-0.6s0.9,0.4,0.9,0.6l7.8,15.9c2.3,4.7,6.9,8,12.1,8.8l17.5,2.5
		c0.2,0,0.6,0.1,0.8,0.7c0.2,0.6-0.1,1-0.3,1.1L132.5,94.1z"/>
	<path class="st0" d="M455.3,92.5c4.4-4.3,6-10.6,4.1-16.5c-1.9-5.9-6.9-10.1-13-10.9l-17.5-2.5c-0.3,0-0.6-0.3-0.8-0.6l-7.8-15.9
		c-2.7-5.5-8.3-9-14.4-9s-11.7,3.4-14.4,9L383.6,62c-0.2,0.3-0.5,0.5-0.8,0.6l-17.5,2.5c-6.1,0.9-11.1,5.1-13,10.9
		c-1.9,5.9-0.3,12.2,4.1,16.5l12.7,12.3c0.2,0.2,0.4,0.6,0.3,0.9l-3,17.4c-1,6.1,1.4,12.1,6.4,15.7c5,3.6,11.5,4.1,16.9,1.2
		l15.7-8.2c0.3-0.2,0.7-0.2,1,0l15.7,8.2c2.4,1.2,4.9,1.9,7.5,1.9c3.3,0,6.6-1,9.4-3.1c5-3.6,7.4-9.7,6.4-15.7l-3-17.4
		c-0.1-0.3,0.1-0.7,0.3-0.9L455.3,92.5z M432.1,94.1c-3.8,3.7-5.5,9-4.6,14.2l3,17.4c0,0.2,0.1,0.6-0.4,1c-0.5,0.4-1,0.2-1.1,0.1
		l-15.7-8.2c-2.3-1.2-4.9-1.8-7.5-1.8s-5.1,0.6-7.5,1.8l-15.7,8.2c-0.2,0.1-0.6,0.3-1.1-0.1c-0.5-0.4-0.4-0.9-0.4-1l3-17.4
		c0.9-5.2-0.8-10.5-4.6-14.2l-12.7-12.3c-0.1-0.1-0.5-0.5-0.3-1.1c0.2-0.6,0.7-0.7,0.8-0.7l17.5-2.5c5.2-0.8,9.8-4.1,12.1-8.8
		l7.8-15.9c0.1-0.2,0.3-0.6,0.9-0.6s0.9,0.4,0.9,0.6l7.8,15.9c2.3,4.7,6.9,8,12.1,8.8l17.5,2.5c0.2,0,0.6,0.1,0.8,0.7
		c0.2,0.6-0.1,1-0.3,1.1L432.1,94.1z"/>
</g>
</svg>
