<?xml version="1.0" encoding="utf-8"?>
<!-- Generator: Adobe Illustrator 23.0.1, SVG Export Plug-In . SVG Version: 6.00 Build 0)  -->
<svg version="1.1" id="Capa_1" xmlns="http://www.w3.org/2000/svg" xmlns:xlink="http://www.w3.org/1999/xlink" x="0px" y="0px"
	 viewBox="0 0 480 480" style="enable-background:new 0 0 480 480;" xml:space="preserve">
<style type="text/css">
	.st0{fill:#F57F17;}
</style>
<g>
	<g>
		<path class="st0" d="M450.3,312.6c40.1-40.9,39.5-106.6-1.4-146.7c-7.4-7.2-15.7-13.3-24.9-18V8c0-4.4-3.6-8-8-8H64
			c-4.4,0-8,3.6-8,8v272c0,4.4,3.6,8,8,8h219.8c22.5,43.6,72.4,65.4,119.6,52.2l-40.1,50.7c-4.5,5.8-11.5,9.1-18.8,9.1h-14.6
			c11-16.5,6.6-38.9-9.9-49.9c-5.9-4-12.9-6.1-20-6.1h-98.5l-65.1-25c-28.7-8.8-59.3-9.6-88.4-2.2V312c0-4.4-3.6-8-8-8H8
			c-4.4,0-8,3.6-8,8v160c0,4.4,3.6,8,8,8h32c4.4,0,8-3.6,8-8v-14.4l118.5,22.2c0.5,0.1,1,0.2,1.5,0.2h200.5c7.1,0,13.8-3.1,18.4-8.6
			l81.9-97.6c14.3-13.5,15-36.1,1.4-50.5C464.9,317.7,457.9,313.9,450.3,312.6z M32,464H16V320h16V464z M208,16h64v80h-64L208,16
			L208,16z M277.1,207.8c-6.8,20.9-6.8,43.4,0,64.2H72V16h120v88c0,4.4,3.6,8,8,8h80c4.4,0,8-3.6,8-8V16h120v125.1
			C353.4,123.4,294.8,153.2,277.1,207.8z M376,328c-48.6-0.1-87.9-39.4-88-88c0-48.6,39.4-88,88-88s88,39.4,88,88S424.6,328,376,328
			z M457.6,362.4c-0.3,0.2-0.5,0.5-0.7,0.8l-82.2,98c-1.5,1.8-3.8,2.9-6.1,2.9H168.7L48,441.4V333.4c27-7.7,55.7-7.5,82.7,0.5
			l66.4,25.6c0.9,0.3,1.9,0.5,2.9,0.5h100c11,0,20,9,20,20s-9,20-20,20h-52v16h96.5c12.2,0,23.8-5.6,31.4-15.2l54-68.3
			c3.6-2.9,8-4.6,12.6-4.5h1.7c10.9,0,19.8,8.9,19.8,19.8C464,353.3,461.7,358.6,457.6,362.4z"/>
	</g>
</g>
<g>
	<g>
		<path class="st0" d="M439.6,213.6c-1-3-3.6-5.1-6.7-5.5l-34.9-4.1l-14.8-31.3c-1.3-2.8-4.1-4.6-7.2-4.6c-3.1-0.2-6,1.6-7.2,4.5
			l-15.4,31.4l-34.4,4.1c-4.4,0.5-7.5,4.5-7,8.9c0.2,1.8,1,3.5,2.4,4.8l25.3,24.7l-11.3,39.4c-1.2,4.2,1.2,8.7,5.5,9.9
			c2.2,0.6,4.6,0.3,6.6-1l35.6-23.2l35.6,23.2c3.7,2.4,8.7,1.3,11.1-2.4c1.3-2,1.6-4.6,0.9-6.9l-13-39.1l26.8-24.5
			C439.7,219.8,440.6,216.5,439.6,213.6z M395.9,238.1c-2.3,2.1-3.2,5.4-2.2,8.4l7.4,22.3l-20.8-13.5c-2.7-1.7-6.1-1.7-8.7,0
			l-22.1,14.3l6.7-23.4c0.8-2.8,0-5.9-2.1-7.9l-16.7-16.3l22.1-2.7c2.7-0.3,5-2,6.2-4.4l10-20.4l9.6,20.3c1.2,2.5,3.5,4.2,6.3,4.5
			l22,2.6L395.9,238.1z"/>
	</g>
</g>
<g>
	<g>
		<path class="st0" d="M240,192H96c-4.4,0-8,3.6-8,8v48c0,4.4,3.6,8,8,8h144c4.4,0,8-3.6,8-8v-48C248,195.6,244.4,192,240,192z
			 M232,240H104v-32h128V240z"/>
	</g>
</g>
<g>
	<g>
		<path class="st0" d="M165.7,74.3l-32-32c-3.1-3.1-8.2-3.1-11.3,0l-32,32c-3.1,3.1-3.1,8.2,0,11.3c1.5,1.5,3.5,2.3,5.7,2.3h8v16
			c0,4.4,3.6,8,8,8h32c4.4,0,8-3.6,8-8V88h8c4.4,0,8-3.6,8-8C168,77.9,167.2,75.8,165.7,74.3z M136,80v16h-16V80
			c0-3.3-2.1-6.3-5.2-7.5L128,59.3l13.2,13.2C138.1,73.7,136,76.7,136,80z"/>
	</g>
</g>
</svg>
