<?xml version="1.0" encoding="utf-8"?>
<!-- Generator: Adobe Illustrator 23.0.1, SVG Export Plug-In . SVG Version: 6.00 Build 0)  -->
<svg version="1.1" id="ship" xmlns="http://www.w3.org/2000/svg" xmlns:xlink="http://www.w3.org/1999/xlink" x="0px" y="0px"
	 viewBox="0 0 487.2 473.2" style="enable-background:new 0 0 487.2 473.2;" xml:space="preserve">
<style type="text/css">
	.st0{fill:#F57F17;stroke:#F57F17;stroke-width:5;stroke-miterlimit:10;}
</style>
<path class="st0" d="M167.9,253.1h-62.3c-12.1,0-22,9.9-22,22v19.3c0,3.3,2.7,6,6,6h78.3c3.3,0,6-2.7,6-6v-35.3
	C173.9,255.8,171.2,253.1,167.9,253.1z M108.5,288.4H95.7v-13.3c0-5.5,4.5-10,10-10h2.8V288.4z M137.1,288.4h-16.6v-23.3h16.6V288.4
	z M161.9,288.4H149v-23.3h12.9V288.4z"/>
<path class="st0" d="M114.3,347.4h-5.8c-3.3,0-6,2.7-6,6s2.7,6,6,6h5.8c3.3,0,6-2.7,6-6S117.6,347.4,114.3,347.4L114.3,347.4z"/>
<path class="st0" d="M126.2,353.4c0,3.3,2.7,6,6,6h169.5c3.3,0,6-2.7,6-6s-2.7-6-6-6H132.2C128.9,347.4,126.2,350.1,126.2,353.4z"/>
<path class="st0" d="M270.3,238c3.3,0,6-2.7,6-6v-43.4c0-3.3-2.7-6-6-6s-6,2.7-6,6V232C264.3,235.3,267,238,270.3,238z"/>
<path class="st0" d="M306.7,238c3.3,0,6-2.7,6-6v-43.4c0-3.3-2.7-6-6-6s-6,2.7-6,6V232C300.7,235.3,303.3,238,306.7,238z"/>
<path class="st0" d="M343,238c3.3,0,6-2.7,6-6v-43.4c0-3.3-2.7-6-6-6s-6,2.7-6,6V232C337,235.3,339.7,238,343,238z"/>
<path class="st0" d="M472.6,461.2c-13.4,0-19.9-5.6-27.4-12.1c-8.1-7.1-17.4-15.1-35.3-15.1s-27.1,8-35.3,15.1
	c-7.5,6.5-14,12.1-27.4,12.1s-19.9-5.6-27.4-12.1c-8.1-7.1-17.4-15.1-35.3-15.1s-27.1,8-35.3,15.1c-7.5,6.5-14,12.1-27.4,12.1
	s-19.9-5.6-27.4-12.1C186.3,442,177,434,159.1,434s-27.1,8-35.3,15.1c-7.5,6.5-14,12.1-27.4,12.1s-19.9-5.6-27.4-12.1
	C60.9,442,51.6,434,33.7,434c-3.3,0-6,2.7-6,6s2.7,6,6,6c13.4,0,19.9,5.6,27.4,12.1c8.1,7.1,17.4,15.1,35.3,15.1s27.1-8,35.3-15.1
	c7.5-6.5,14-12.1,27.4-12.1s19.9,5.6,27.4,12.1c8.1,7.1,17.4,15.1,35.3,15.1s27.1-8,35.3-15.1c7.5-6.5,14-12.1,27.4-12.1
	s19.9,5.6,27.4,12.1c8.1,7.1,17.4,15.1,35.3,15.1s27.1-8,35.3-15.1c7.5-6.5,14-12.1,27.4-12.1s19.9,5.6,27.4,12.1
	c8.1,7.1,17.4,15.1,35.3,15.1c3.3,0,6-2.7,6-6S475.9,461.2,472.6,461.2L472.6,461.2z"/>
<path class="st0" d="M481.2,313h-10v-24.8c0-3.3-2.7-6-6-6h-13.5V6c0-3.3-2.7-6-6-6h-28.3c-3.3,0-6,2.7-6,6v19.4H294.2
	c-3.3,0-6,2.7-6,6v20.3c0,3.3,2.7,6,6,6h5.8v17.5c0,1.9-1,3.7-2.7,4.7c-8.1,4.8-10.8,15.3-6,23.4c2.3,3.9,6,6.7,10.3,7.8v14.6
	l-68.5,39.4l-4.1,4.1c-0.9,1.6-1.4,3.5-1.4,5.3v74.3c0,3.3,2.7,6,6,6h146.1c3.3,0,6-2.7,6-6v-74.2c0-1.9-0.5-3.8-1.4-5.4l-0.1-0.1
	c-0.9-1.6-2.3-3-3.9-4l-66.7-39.3V110c5.7-2.8,9.4-8.6,9.5-14.9c0.1-3.2-2.2-6-5.4-6.4c-3.3-0.3-6.2,2.1-6.5,5.4c0,0.2,0,0.4,0,0.6
	c0,2.8-2.3,5.1-5.1,5.1c-2.3,0-4.3-1.5-4.9-3.7s0.3-4.6,2.3-5.8c5.3-3.2,8.6-8.9,8.6-15.1V57.7h99.5v224.5H200.9v-60.1
	c0-3.3-2.7-6-6-6l0,0H177v-76.2c0-3.3-2.7-6-6-6h-38.2c-3.3,0-6,2.7-6,6v76.2h-4.6c-27.9,0.1-53.7,14.7-68.1,38.6l-34.9,58.4H6
	c-3.3,0-6,2.7-6,6c0,0.9,0.2,1.8,0.6,2.7l35.1,70.8c-0.6,0-1.3,0-2,0c-3.3,0-6,2.7-6,6s2.7,6,6,6c3.6,0,7.1,0.4,10.5,1.4
	c6.9,2.1,11.8,6.3,16.9,10.7c8.1,7.1,17.4,15.1,35.3,15.1s27.1-8,35.3-15.1c7.5-6.5,14-12.1,27.4-12.1s19.9,5.6,27.4,12.1
	c8.1,7.1,17.4,15.1,35.3,15.1s27.1-8,35.3-15.1c7.5-6.5,14-12.1,27.4-12.1s19.9,5.6,27.4,12.1c8.1,7.1,17.4,15.1,35.3,15.1
	s27.1-8,35.3-15.1c7.5-6.5,14-12.1,27.4-12.1s19.9,5.6,27.4,12.1c4.5,3.9,9.2,8,15.5,10.9c6.2,2.8,12.9,4.2,19.7,4.1
	c3.3,0,6-2.7,6-6s-2.7-6-6-6c-3.4,0-6.8-0.4-10.1-1.3l24.6-98c0.8-3.2-1.1-6.5-4.4-7.3C482.2,313.1,481.7,313,481.2,313L481.2,313z
	 M373.7,242.9H239.6v-65.1h134.1V242.9z M307.6,136.2l50.2,29.6H256.1L307.6,136.2z M423.5,12h16.3v270.2h-16.3V12z M300.2,45.7
	v-8.3h111.3v8.3H300.2z M138.8,145.9H165v16.7h-26.2V145.9z M138.8,174.6H165v41.5h-26.2V174.6z M64.4,260.8
	c12.2-20.3,34.1-32.7,57.8-32.8h66.7v85H33.1L64.4,260.8z M451.5,412.9c-2.2-1.6-4.2-3.4-6.4-5.2c-8.1-7.1-17.4-15.1-35.3-15.1
	s-27.1,8-35.3,15.1c-7.5,6.5-14,12.1-27.4,12.1s-19.9-5.6-27.4-12.1c-8.1-7.1-17.3-15.1-35.2-15.1s-27.1,8-35.3,15.1
	c-7.5,6.5-14,12.1-27.4,12.1s-19.9-5.6-27.4-12.1c-8.1-7.1-17.4-15.1-35.3-15.1s-27.1,8-35.3,15.1c-7.5,6.5-14,12.1-27.4,12.1
	s-19.9-5.6-27.4-12.1c-5-4.4-10.6-9.2-18.5-12.2L15.6,325h222.6c3.3,0,6-2.7,6-6s-2.7-6-6-6h-37.4v-18.8h258.4V313H262.9
	c-3.3,0-6,2.7-6,6s2.7,6,6,6h210.6L451.5,412.9z"/>
</svg>
